<svg width="277" height="104" viewBox="0 0 277 104" fill="none" xmlns="http://www.w3.org/2000/svg">
<path opacity="0.5" d="M235.035 10.7942C235.035 10.7942 153.516 -21.5235 82.9497 -52.622C82.9497 -52.622 46.0629 -61.5826 26.8176 -44.7156C26.8176 -44.7156 42.8554 -46.824 42.8554 -37.8634C42.8554 -37.8634 56.7548 -19.9422 13.4529 -16.7797C-16.7038 -14.5772 -28.7106 3.21978 -33.2214 13.8221C-36.743 22.3329 -42.9335 29.5097 -50.8879 34.3035C-61.3108 40.4454 -76.4168 44.9641 -94 36.9838C-94 36.9838 -93.0004 38.499 -91.1043 41.0237C-57.1555 86.2266 69.2667 125.567 113.91 90.5496C141.5 68.9089 185.237 41.5567 216.591 55.3336C265.774 76.9444 274.862 67.4567 274.862 67.4567L277 61.6587C277 61.6587 229.421 49.0085 228.352 32.6686C227.283 16.3287 235.035 10.7942 235.035 10.7942Z" fill="#2A9D8E"/>
</svg>
