<svg width="335" height="359" viewBox="0 0 335 359" fill="none" xmlns="http://www.w3.org/2000/svg">
<path d="M311.982 142.244L301.342 134.594L302.138 134.021L312.778 141.672L311.982 142.244Z" fill="#CBCBCB"/>
<path d="M302.701 142.244L301.906 141.672L312.544 134.021L313.34 134.594L302.701 142.244Z" fill="#CBCBCB"/>
<path d="M223.514 82.9413L223.001 84.2978L226.006 86.3828L226.52 85.0264L223.514 82.9413Z" fill="#CBCBCB"/>
<path d="M285.828 127.883L279.846 123.733L280.36 122.376L286.342 126.526L285.828 127.883ZM273.864 119.583L267.882 115.433L268.395 114.076L274.377 118.226L273.864 119.583ZM261.899 111.283L255.917 107.133L256.431 105.776L262.413 109.926L261.899 111.283ZM249.935 102.983L243.953 98.8328L244.466 97.4763L250.448 101.626L249.935 102.983ZM237.971 94.6828L231.988 90.5329L232.502 89.1764L238.484 93.3263L237.971 94.6828Z" fill="#CBCBCB"/>
<path d="M292.324 130.676L291.811 132.033L294.816 134.118L295.33 132.761L292.324 130.676Z" fill="#CBCBCB"/>
<path d="M21.2441 226.534C32.7829 226.534 42.1369 213.871 42.1369 198.25C42.1369 182.629 32.7829 169.965 21.2441 169.965C9.7053 169.965 0.351257 182.629 0.351257 198.25C0.351257 213.871 9.7053 226.534 21.2441 226.534Z" fill="#E5E5E5"/>
<path opacity="0.2" d="M5.29397 182.36C3.34513 188.531 3.08076 195.44 4.54809 201.851C6.01543 208.262 9.11885 213.758 13.3038 217.356C17.4887 220.955 22.4825 222.422 27.3927 221.495C32.303 220.567 36.8097 217.307 40.1076 212.295C38.9171 216.066 37.1353 219.441 34.8857 222.187C32.6361 224.932 29.9724 226.983 27.0792 228.197C24.186 229.41 21.1325 229.758 18.1302 229.215C15.1279 228.673 12.2486 227.253 9.69189 225.055C7.13513 222.856 4.96199 219.932 3.32307 216.483C1.68414 213.035 0.618585 209.145 0.200249 205.084C-0.218086 201.023 0.0207898 196.887 0.900327 192.963C1.77986 189.04 3.27904 185.422 5.29397 182.36Z" fill="black"/>
<path d="M334.077 74.4185C307.706 72.3079 281.257 72.8583 254.947 76.0652C242.266 77.617 229.383 79.2931 216.936 83.0378C206.911 86.0541 195.276 91.152 189.029 103.026C187.721 105.418 186.839 108.188 186.453 111.119C186.067 114.049 186.187 117.061 186.804 119.918C188.293 126.687 191.998 132.321 195.944 136.734C205.026 146.891 216.294 152.801 226.359 160.87C244.736 175.603 261.555 195.462 272.35 220.688C277.101 231.788 281.619 246.548 276.33 258.779C271.148 270.762 259.58 274.891 250.145 276.837C238.321 279.278 226.141 278.616 214.267 277.249C201.249 275.606 188.304 273.039 175.485 269.559C150.371 263.031 125.486 254.727 100.024 250.951C87.2568 248.918 74.3821 248.414 61.5496 249.445C49.9604 250.503 38.2719 252.984 27.3847 258.642C18.9952 263.001 10.0523 269.597 5.52064 280.596C1.15228 291.199 2.85608 303.427 7.61267 313.21C13.3358 324.98 22.2603 333.046 31.5388 338.942C42.1032 345.654 53.4028 350.005 64.7168 353.705C70.455 355.582 76.2242 357.278 81.9939 358.966C83.1976 359.318 83.7119 356.815 82.5039 356.462C70.8687 353.058 59.1999 349.644 47.8537 344.716C37.354 340.157 26.6089 334.316 18.0106 324.742C11.0545 316.997 4.44072 305.683 4.85129 292.821C5.26519 279.854 13.3016 270.8 21.1783 265.227C31.0221 258.263 42.206 254.871 53.1648 253.098C65.713 251.205 78.3675 250.972 90.949 252.402C116.351 255.019 141.186 262.852 166.092 269.685C190.288 276.323 215.239 282.47 240.035 280.767C249.863 280.092 260.394 278.186 269.072 271.47C273.045 268.395 276.628 264.059 278.647 258.416C280.466 253.047 281.041 247.057 280.297 241.237C278.89 228.451 273.28 216.596 267.683 206.412C261.548 195.366 254.431 185.386 246.493 176.696C237.781 167.204 228.388 158.92 218.454 151.968C213.187 148.214 207.844 144.603 202.824 140.254C198.01 136.085 193.262 131.067 190.323 124.298C187.78 118.444 187.314 111.762 189.962 105.824C192.64 99.8181 197.255 95.6295 201.805 92.5686C212.769 85.1939 225.515 83.2198 237.511 81.197C263.267 76.8687 289.223 75.1167 315.17 75.9551C321.476 76.1559 327.779 76.5094 334.077 77.0155C335.31 77.1137 335.306 74.5164 334.077 74.4185Z" fill="black"/>
<path d="M298.017 4.82816L302 0.515204C298.905 0.0530258 297.634 2.33771 297.114 4.14606C294.696 2.78709 292.064 4.56811 292.064 4.56811L300.034 8.48503C299.632 7.03119 298.932 5.76266 298.017 4.82816Z" fill="#3F3D56"/>
<path d="M317.348 26.4472L321.331 22.1342C318.237 21.672 316.965 23.9567 316.445 25.7651C314.027 24.4061 311.396 26.1871 311.396 26.1871L319.366 30.104C318.963 28.6502 318.264 27.3817 317.348 26.4472Z" fill="#3F3D56"/>
<path d="M257.632 32.8371C264.26 32.8371 269.633 25.5631 269.633 16.5902C269.633 7.61731 264.26 0.343323 257.632 0.343323C251.004 0.343323 245.631 7.61731 245.631 16.5902C245.631 25.5631 251.004 32.8371 257.632 32.8371Z" fill="#FF6583"/>
<path d="M295.266 66.6545H236.391C236.318 66.6557 236.244 66.6478 236.171 66.6309L264.017 1.34C264.187 0.933283 264.433 0.594923 264.731 0.359489C265.029 0.124055 265.368 0 265.714 0C266.059 0 266.398 0.124055 266.696 0.359489C266.994 0.594923 267.24 0.933283 267.41 1.34L286.097 45.1537L286.992 47.2499L295.266 66.6545Z" fill="#2A9D8E"/>
<path d="M328.044 66.6553H277.124L286.991 47.2523L287.7 45.8541L300.558 20.5686C300.785 20.1817 301.07 19.8639 301.395 19.636C301.719 19.4081 302.074 19.275 302.439 19.2456C302.803 19.2161 303.168 19.2908 303.51 19.465C303.852 19.6391 304.163 19.9087 304.423 20.2562C304.489 20.3549 304.551 20.4592 304.608 20.5686L328.044 66.6553Z" fill="#2A9D8E"/>
<path d="M244.048 216.401C249.629 220.177 253.026 225.164 253.026 230.634C253.026 242.417 237.276 251.969 217.848 251.969C209.401 251.969 201.652 250.162 195.588 247.152C202.029 251.511 211.378 254.255 221.788 254.255C241.216 254.255 256.966 244.703 256.966 232.92C256.966 226.259 251.932 220.313 244.048 216.401Z" fill="#F1F1F1"/>
<path d="M256.461 224.495C262.758 228.756 266.592 234.383 266.592 240.555C266.592 253.851 248.82 264.629 226.897 264.629C217.366 264.629 208.622 262.59 201.779 259.194C209.047 264.112 219.597 267.209 231.343 267.209C253.266 267.209 271.037 256.43 271.037 243.134C271.037 235.619 265.357 228.91 256.461 224.495Z" fill="#F1F1F1"/>
<path d="M239.298 219.966C243.23 222.626 245.623 226.14 245.623 229.993C245.623 238.295 234.527 245.025 220.839 245.025C215.507 245.118 210.202 243.97 205.156 241.631C209.694 244.702 216.281 246.635 223.615 246.635C237.303 246.635 248.399 239.906 248.399 231.604C248.399 226.912 244.852 222.723 239.298 219.966Z" fill="#F1F1F1"/>
<path d="M184.057 218.442C184.057 218.442 184.921 235.537 209.687 235.537C234.452 235.537 241.846 218.442 241.846 218.442H184.057Z" fill="#3F3D56"/>
<path d="M219.209 173.588C215.634 169.911 211.147 168.249 206.687 168.951C210.672 170.252 214.192 173.411 216.629 177.875C219.065 182.339 220.262 187.822 220.01 193.362C219.758 198.902 218.073 204.144 215.25 208.17C212.428 212.195 208.648 214.746 204.574 215.375C208.471 216.648 212.572 216.066 216.189 213.728C219.806 211.389 222.718 207.436 224.435 202.533C226.152 197.629 226.57 192.075 225.618 186.804C224.667 181.533 222.404 176.866 219.209 173.588Z" fill="#3F3D56"/>
<path d="M211.094 165.866H209.405V220.278H211.094V165.866Z" fill="#3F3D56"/>
<path d="M322.065 125.437L322.055 125.416L322.033 124.086L327.323 113.689L322.039 123.092L322.02 123.373L321.839 112.745L326.408 101.965L321.826 110.878L321.874 88.8604L321.874 88.7871L321.872 88.8592L321.569 106.212L317.405 99.1633L321.556 107.707L321.465 117.213L317.633 107.936L321.451 118.611L321.4 123.897L321.26 138.541L321.25 139.635C321.603 139.639 321.952 139.631 322.298 139.611L322.058 125.545L322.065 125.437Z" fill="#CBCBCB"/>
<path d="M296.736 130.009L296.727 129.988L296.704 128.658L301.994 118.261L296.711 127.664L296.692 127.945L296.511 117.317L301.08 106.537L296.498 115.45L296.546 93.4323L296.545 93.359L296.544 93.4311L296.241 110.784L292.076 103.735L296.227 112.279L296.136 121.785L292.304 112.507L296.122 123.183L296.071 128.468L295.931 143.113L295.921 144.207C296.274 144.211 296.623 144.203 296.969 144.183L296.73 130.117L296.736 130.009Z" fill="#CBCBCB"/>
<path d="M309.119 115.531L309.11 115.51L309.087 114.181L314.377 103.783L309.093 113.186L309.074 113.467L308.894 102.84L313.463 92.0596L308.881 100.973L308.928 78.9549L308.928 78.8816L308.927 78.9537L308.623 96.3065L304.459 89.2578L308.61 97.8015L308.519 107.308L304.687 98.03L308.505 108.705L308.454 113.991L308.314 128.635L308.304 129.73C308.657 129.733 309.006 129.725 309.352 129.706L309.112 115.64L309.119 115.531Z" fill="#CBCBCB"/>
</svg>
